<?xml version="1.0" standalone="no"?>
<!DOCTYPE svg PUBLIC "-//W3C//DTD SVG 20010904//EN"
 "http://www.w3.org/TR/2001/REC-SVG-20010904/DTD/svg10.dtd">
<svg version="1.0" xmlns="http://www.w3.org/2000/svg"
 width="140.000000pt" height="140.000000pt" viewBox="0 0 140.000000 140.000000"
 preserveAspectRatio="xMidYMid meet">
<metadata>
Created by potrace 1.14, written by Peter Selinger 2001-2017
</metadata>
<g transform="translate(0.000000,140.000000) scale(0.100000,-0.100000)"
fill="#000000" stroke="none">
<path d="M532 1360 c-119 -31 -206 -83 -302 -180 -61 -60 -97 -106 -123 -157
-103 -198 -103 -438 0 -636 51 -99 181 -229 280 -280 199 -104 447 -104 646 0
99 51 229 181 280 280 103 198 103 438 0 636 -51 99 -181 229 -280 280 -147
77 -342 99 -501 57z m136 -446 c14 -9 22 -26 22 -43 0 -27 -2 -28 -61 -35 -34
-3 -82 -6 -106 -6 -38 0 -46 -4 -63 -32 -27 -45 -27 -141 0 -185 19 -32 22
-33 87 -33 38 0 85 -3 106 -6 32 -6 37 -10 37 -35 0 -47 -30 -59 -146 -59
-122 0 -155 16 -194 95 -20 41 -25 65 -25 130 0 65 5 89 25 130 39 79 72 95
194 95 76 0 107 -4 124 -16z m224 -145 c3 -155 4 -161 27 -180 17 -14 39 -19
86 -19 56 0 65 -3 79 -25 9 -13 16 -33 16 -45 0 -19 -6 -20 -126 -20 -125 0
-126 0 -155 29 -29 29 -29 30 -31 158 -2 169 2 235 14 251 6 6 28 12 49 12
l38 0 3 -161z"/>
</g>
</svg>
